<?xml version="1.0" standalone="no"?>
<!DOCTYPE svg PUBLIC "-//W3C//DTD SVG 20010904//EN"
 "http://www.w3.org/TR/2001/REC-SVG-20010904/DTD/svg10.dtd">
<svg version="1.0" xmlns="http://www.w3.org/2000/svg"
 width="1158.000000pt" height="1019.000000pt" viewBox="0 0 1158.000000 1019.000000"
 preserveAspectRatio="xMidYMid meet">
<metadata>
Created by potrace 1.16, written by Peter Selinger 2001-2019
</metadata>
<g transform="translate(0.000000,1019.000000) scale(0.100000,-0.100000)"
fill="#000000" stroke="none">
<path d="M0 5095 l0 -5095 5790 0 5790 0 0 5095 0 5095 -5790 0 -5790 0 0
-5095z m5634 2933 c14 -6 28 -19 31 -30 7 -19 20 -24 29 -9 8 12 115 20 161
11 35 -7 37 -9 18 -15 -37 -12 -17 -23 55 -31 77 -8 116 -20 108 -33 -4 -5 7
-12 24 -16 16 -4 33 -11 36 -17 8 -12 8 -12 -146 22 -52 12 -138 28 -190 36
-52 8 -105 19 -117 25 -31 16 -387 5 -482 -15 -41 -9 -76 -14 -78 -12 -11 10
211 69 337 89 56 9 191 6 214 -5z m641 -37 c133 -36 295 -104 295 -124 0 -4
-8 -6 -17 -3 -68 19 -107 27 -119 22 -8 -3 -14 -1 -14 5 0 6 -7 9 -15 5 -8 -3
-15 -1 -15 5 0 6 -4 8 -9 5 -5 -3 -28 1 -52 10 -24 9 -113 33 -198 55 -85 21
-157 42 -160 45 -13 14 237 -7 304 -25z m-1313 -301 c-18 -11 -35 -20 -38 -20
-3 0 -12 -6 -20 -14 -7 -8 -19 -16 -25 -18 -7 -2 -10 -9 -8 -15 3 -7 25 -5 72
7 37 10 70 14 73 9 3 -5 -10 -9 -28 -9 -26 0 -30 -3 -18 -11 13 -9 13 -10 -2
-6 -32 11 -29 -8 4 -19 l33 -12 -32 -1 c-17 -1 -33 -5 -35 -10 -1 -4 -43 -23
-93 -40 -49 -18 -141 -57 -204 -87 -62 -30 -116 -53 -118 -50 -2 2 25 36 62
74 93 100 175 152 355 230 42 18 57 13 22 -8z m1210 -115 c53 -14 118 -56 118
-76 0 -4 -21 -9 -47 -11 -36 -4 -51 -1 -61 11 -8 10 -15 12 -20 6 -5 -7 -109
-9 -302 -7 -260 4 -291 6 -268 18 15 8 80 26 145 40 64 14 119 27 122 30 12
11 258 3 313 -11z m-1397 -165 c-4 -6 5 -7 23 -4 18 4 32 1 37 -6 5 -9 1 -10
-15 -5 -15 5 -20 3 -16 -3 3 -6 1 -14 -5 -18 -8 -4 -9 -3 -5 4 4 7 1 12 -8 12
-8 0 -18 -4 -21 -10 -3 -5 0 -10 7 -10 7 0 -9 -14 -37 -31 -162 -101 -233
-149 -278 -189 -43 -38 -49 -41 -42 -20 13 41 60 104 118 156 70 65 268 166
242 124z m1160 -30 c-11 -5 -33 -9 -48 -9 -15 -1 -57 -8 -93 -17 -47 -12 -64
-21 -60 -30 3 -8 0 -14 -7 -14 -74 -3 -172 -14 -212 -26 -105 -29 -385 -74
-462 -74 -134 0 186 114 462 165 79 14 452 19 420 5z m235 -320 c3 0 -3 -5
-13 -11 -27 -16 -140 -45 -250 -64 -69 -12 -96 -20 -88 -28 12 -12 156 -26
370 -35 131 -6 154 -9 157 -23 1 -11 -11 -20 -40 -29 -22 -7 -44 -17 -48 -23
-10 -16 -193 -21 -337 -8 -257 23 -393 58 -538 138 -100 55 -97 59 35 50 64
-4 178 -5 252 -2 131 6 421 32 428 39 2 3 51 0 72 -4z m-1514 -61 c6 -10 291
-153 306 -154 4 0 13 -6 20 -14 11 -11 9 -12 -11 -6 -16 5 -21 4 -17 -4 4 -6
21 -15 39 -20 26 -7 28 -9 9 -10 -13 -1 -20 -5 -17 -11 3 -6 -1 -7 -9 -4 -9 3
-13 11 -9 17 3 6 1 7 -5 3 -18 -11 -177 78 -254 143 -59 49 -80 71 -70 71 6 0
14 -5 18 -11z m2783 -204 c42 -55 71 -70 71 -37 1 12 5 8 16 -12 28 -50 40
-306 15 -306 -4 0 -17 42 -30 93 -14 50 -34 108 -46 127 -12 19 -29 53 -37 75
-9 22 -24 57 -32 78 -23 53 -5 46 43 -18z m-748 -2 c-5 -10 -22 -30 -36 -46
-14 -15 -23 -32 -20 -37 3 -6 2 -10 -2 -10 -5 0 -21 -10 -35 -21 -33 -27 -108
-54 -174 -63 -27 -4 -58 -9 -69 -12 -11 -2 5 9 35 24 83 42 168 91 238 139 71
48 77 51 63 26z m106 -172 c45 -79 255 -309 333 -366 80 -58 112 -158 130
-400 11 -154 21 -206 84 -450 64 -249 75 -341 72 -595 -6 -427 -61 -672 -209
-930 -45 -79 -111 -160 -129 -160 -4 0 -8 16 -8 35 0 19 -3 35 -7 35 -5 0 -23
-26 -42 -57 -42 -69 -98 -133 -117 -133 -9 0 -14 13 -15 38 0 41 3 44 -58 -58
-41 -69 -58 -82 -67 -53 -29 88 -51 126 -98 171 -29 27 -65 56 -82 64 -96 50
-226 59 -432 33 -157 -20 -371 -33 -402 -25 -24 6 -24 7 7 13 21 4 58 30 99
68 65 60 67 61 108 54 22 -4 63 -8 90 -9 42 -1 51 3 70 27 33 45 30 138 -7
197 -19 30 -27 36 -22 20 3 -14 9 -56 12 -95 4 -59 2 -74 -14 -94 -19 -23 -19
-23 -75 -7 -96 28 -117 21 -214 -68 -32 -28 -61 -46 -77 -46 -15 0 -52 23 -98
60 -98 80 -100 81 -231 43 -9 -3 -26 5 -37 16 -24 24 -29 96 -10 150 17 50 4
48 -26 -4 -24 -40 -27 -53 -22 -98 4 -28 15 -63 25 -77 20 -26 20 -26 173 -18
32 2 45 -5 99 -55 37 -34 75 -60 94 -64 30 -6 30 -7 6 -13 -30 -7 -251 5 -370
21 -47 6 -137 14 -201 16 -98 4 -126 2 -189 -17 -86 -25 -133 -53 -178 -104
-38 -43 -82 -127 -82 -155 0 -60 -69 -4 -113 91 -26 57 -37 61 -37 13 0 -22
-5 -35 -13 -35 -20 0 -80 67 -126 140 l-41 65 0 -43 c0 -54 -13 -52 -61 12
-80 105 -154 287 -193 476 -40 188 -46 258 -56 587 -10 341 -12 326 79 677 27
103 45 199 51 270 10 129 26 239 41 304 18 71 82 200 151 302 69 102 95 122
229 171 78 29 95 31 234 34 90 1 182 9 230 19 71 14 87 14 150 2 38 -8 131
-22 205 -32 168 -21 421 -14 585 15 60 11 111 18 113 17 1 -2 -23 -14 -55 -26
-125 -50 -107 -64 79 -64 196 0 369 34 558 107 36 14 70 26 75 26 6 1 20 -17
32 -38z m360 -46 c23 -16 42 -36 43 -43 0 -8 7 -11 19 -7 15 4 22 -4 39 -42
26 -61 58 -158 67 -203 l7 -35 -18 25 c-32 47 -99 135 -113 149 -7 8 -18 27
-23 43 -6 15 -14 25 -19 22 -5 -3 -6 2 -3 10 3 9 2 16 -3 16 -10 0 -53 75 -53
92 0 12 6 10 57 -27z m-2779 0 c-3 -13 -1 -26 4 -27 11 -4 -5 -19 -97 -95 -38
-31 -79 -67 -90 -80 -28 -31 -35 -29 -25 8 22 75 105 179 164 205 43 19 49 17
44 -11z m-576 -1357 c52 -15 61 -32 88 -153 13 -55 25 -107 28 -115 3 -8 -18
14 -48 49 -87 101 -147 142 -180 121 -13 -8 -12 -12 6 -25 12 -8 45 -38 74
-67 57 -59 57 -51 12 -174 -23 -66 -28 -95 -26 -149 3 -76 18 -127 40 -146 14
-12 15 -7 8 37 -17 100 3 224 45 275 l18 23 30 -48 c28 -45 30 -55 37 -192 5
-130 29 -342 42 -386 4 -14 -1 -18 -20 -18 -17 0 -43 18 -82 58 l-58 57 24
-42 c32 -57 78 -100 120 -110 l35 -9 18 -94 c9 -51 15 -95 13 -98 -3 -2 -22 2
-42 8 -34 12 -104 72 -104 90 0 4 -38 57 -84 118 -110 146 -162 273 -191 473
-7 46 -6 46 24 52 50 10 78 46 86 110 4 31 5 64 1 72 -10 27 -36 29 -53 6 -11
-16 -23 -21 -46 -19 -32 3 -32 3 -30 56 5 112 52 208 116 236 41 18 51 19 99
4z m3964 -13 c61 -36 92 -103 103 -224 18 -201 -51 -519 -143 -656 -70 -105
-164 -236 -188 -263 -25 -28 -93 -60 -105 -49 -5 5 9 86 28 158 7 30 15 38 41
43 18 3 47 23 70 46 42 45 74 100 58 100 -5 0 -10 -4 -10 -8 0 -4 -21 -29 -47
-55 -52 -53 -100 -66 -90 -24 22 88 47 337 47 458 0 61 22 122 54 148 14 12
19 6 42 -44 22 -48 27 -74 28 -144 1 -47 -3 -102 -8 -121 l-8 -35 22 28 c52
66 50 207 -6 341 -14 32 -22 61 -19 64 3 4 20 -9 36 -28 89 -103 99 -111 121
-108 17 2 24 11 26 34 2 25 -8 44 -58 105 l-61 74 37 33 c28 24 35 35 26 44
-26 26 -136 -59 -200 -156 -30 -43 -37 -35 -27 30 4 32 11 44 23 44 9 0 31 9
49 20 40 24 54 77 29 114 -12 19 -12 26 -3 34 36 29 81 28 133 -3z m-4232
-294 c39 -19 59 -22 99 -18 l49 6 -6 -41 c-9 -53 -11 -55 -53 -73 -67 -28
-173 14 -173 69 0 29 20 88 29 83 3 -1 28 -13 55 -26z m1691 -1351 c405 -62
585 -64 925 -10 272 44 324 38 384 -44 17 -22 21 -42 21 -99 0 -62 -4 -79 -29
-122 -60 -103 -195 -206 -314 -242 -74 -22 -187 -21 -246 1 -39 15 -65 38
-115 102 -6 7 0 11 18 12 34 2 68 9 83 18 17 11 -18 23 -67 23 -30 0 -35 -2
-20 -8 16 -7 12 -10 -23 -16 -24 -4 -46 -4 -49 -1 -4 3 6 6 20 6 15 0 27 5 27
10 0 7 -13 9 -32 6 -73 -11 -208 -17 -208 -9 0 5 -18 9 -40 10 -23 1 -38 -2
-35 -8 4 -5 2 -9 -4 -9 -5 0 -13 5 -16 10 -3 6 -14 10 -23 10 -13 0 -12 -5 8
-20 33 -25 87 -35 108 -19 9 7 6 0 -8 -15 -93 -103 -122 -118 -231 -117 -120
0 -204 28 -296 97 -60 45 -131 126 -158 180 -37 72 -33 154 9 209 54 70 102
77 311 45z m133 -1119 c218 -56 552 -54 762 4 71 19 67 20 74 -19 6 -31 10
-34 53 -40 25 -3 58 -6 74 -6 15 0 30 -4 33 -8 3 -5 -25 -53 -62 -107 -75
-110 -68 -105 -362 -256 -186 -95 -195 -95 -384 6 -78 42 -161 94 -186 118
-25 23 -96 85 -158 137 -127 105 -126 103 -9 115 l67 7 0 34 c0 19 5 34 11 34
6 0 45 -9 87 -19z"/>
<path d="M4663 5726 c-96 -19 -231 -119 -297 -219 -51 -80 -80 -136 -73 -143
3 -4 22 7 41 24 52 45 151 97 236 124 65 20 94 23 220 22 80 -1 170 -6 200
-12 30 -6 129 -27 219 -46 210 -44 231 -39 216 60 -14 98 -103 147 -328 184
-139 23 -335 25 -434 6z"/>
<path d="M6379 5725 c-261 -41 -355 -101 -347 -222 l3 -48 60 0 c33 0 141 18
240 39 162 35 195 39 330 40 118 0 163 -3 209 -18 80 -24 191 -80 244 -123 24
-20 46 -33 49 -30 13 14 -68 139 -137 209 -97 99 -166 142 -251 157 -86 15
-292 13 -400 -4z"/>
<path d="M4730 5200 c-136 -19 -304 -96 -384 -176 -41 -41 -48 -74 -15 -74 12
0 41 -16 65 -35 56 -46 190 -116 279 -146 61 -21 89 -24 215 -24 139 0 150 2
267 38 74 23 153 40 202 44 75 5 81 8 81 28 0 29 -50 102 -115 169 -69 70
-170 129 -265 156 -87 24 -237 33 -330 20z m-57 -132 c-17 -66 -8 -131 25
-192 l31 -58 -27 7 c-75 18 -282 139 -282 165 0 17 210 108 253 110 5 0 5 -15
0 -32z m624 -106 c29 -29 53 -56 53 -61 0 -5 -22 -11 -50 -15 -27 -4 -91 -20
-142 -36 -50 -16 -94 -28 -96 -25 -2 2 5 16 16 32 35 49 54 122 47 176 l-7 49
63 -33 c35 -19 87 -58 116 -87z"/>
<path d="M6485 5200 c-139 -22 -252 -78 -346 -170 -74 -73 -119 -138 -119
-173 0 -23 4 -24 78 -30 44 -4 129 -22 197 -43 149 -45 314 -57 429 -30 120
28 267 100 341 167 17 15 41 29 54 31 40 5 36 27 -16 76 -60 58 -184 124 -282
151 -86 24 -250 34 -336 21z m468 -162 c37 -17 72 -37 77 -44 19 -22 -192
-150 -278 -169 l-33 -7 25 37 c38 56 49 101 43 176 l-6 68 52 -15 c29 -9 82
-29 120 -46z m-622 -20 c-4 -61 10 -112 43 -161 l24 -35 -66 20 c-37 11 -102
27 -144 36 -43 9 -78 20 -78 26 0 17 115 123 156 145 62 32 70 29 65 -31z"/>
<path d="M5934 5023 c-35 -70 -20 -416 23 -544 20 -60 43 -77 43 -31 0 16 -7
73 -16 128 -8 54 -17 184 -19 288 -3 104 -6 191 -8 193 -3 2 -13 -13 -23 -34z"/>
<path d="M4975 3535 c-27 -26 -33 -69 -12 -82 6 -4 39 -11 72 -14 33 -4 113
-18 179 -33 326 -73 656 -74 991 -4 83 17 176 33 208 36 85 6 105 43 54 100
-28 30 -72 29 -92 -2 -13 -19 -37 -29 -128 -49 -357 -82 -712 -81 -1075 3 -73
17 -96 27 -109 46 -20 31 -57 31 -88 -1z"/>
</g>
</svg>
